<mxfile host="app.diagrams.net" modified="2023-03-27T08:48:55.228Z" agent="5.0 (Windows NT 10.0; Win64; x64) AppleWebKit/537.36 (KHTML, like Gecko) Chrome/111.0.0.0 Safari/537.36" etag="JI2eS74ZeuPnhCx9EquA" version="21.0.6" type="github">
  <diagram id="4mfwfn_U5UDbq6bqeZar" name="第 1 页">
    <mxGraphModel dx="1437" dy="978" grid="1" gridSize="10" guides="1" tooltips="1" connect="1" arrows="1" fold="1" page="0" pageScale="1" pageWidth="827" pageHeight="1169" math="0" shadow="0">
      <root>
        <mxCell id="0" />
        <mxCell id="1" parent="0" />
        <mxCell id="c9e2M7kcOkfjXdV6clcm-17" style="edgeStyle=orthogonalEdgeStyle;rounded=0;orthogonalLoop=1;jettySize=auto;html=1;entryX=0.5;entryY=0;entryDx=0;entryDy=0;strokeWidth=2;" edge="1" parent="1" source="-YDh8YO5cCQ9muC20Zy2-2" target="c9e2M7kcOkfjXdV6clcm-6">
          <mxGeometry relative="1" as="geometry">
            <mxPoint x="140" y="280" as="targetPoint" />
          </mxGeometry>
        </mxCell>
        <mxCell id="c9e2M7kcOkfjXdV6clcm-18" style="edgeStyle=orthogonalEdgeStyle;rounded=0;orthogonalLoop=1;jettySize=auto;html=1;entryX=0;entryY=0.5;entryDx=0;entryDy=0;strokeColor=default;strokeWidth=2;" edge="1" parent="1" source="-YDh8YO5cCQ9muC20Zy2-2" target="c9e2M7kcOkfjXdV6clcm-7">
          <mxGeometry relative="1" as="geometry">
            <mxPoint x="290" y="210" as="targetPoint" />
          </mxGeometry>
        </mxCell>
        <mxCell id="c9e2M7kcOkfjXdV6clcm-48" style="edgeStyle=none;shape=connector;rounded=0;orthogonalLoop=1;jettySize=auto;html=1;exitX=0.5;exitY=0;exitDx=0;exitDy=0;entryX=0.5;entryY=1;entryDx=0;entryDy=0;labelBackgroundColor=default;strokeColor=default;fontFamily=Helvetica;fontSize=11;fontColor=default;endArrow=classic;endFill=1;strokeWidth=2;" edge="1" parent="1" source="-YDh8YO5cCQ9muC20Zy2-2" target="c9e2M7kcOkfjXdV6clcm-42">
          <mxGeometry relative="1" as="geometry">
            <Array as="points">
              <mxPoint x="140" y="170" />
            </Array>
          </mxGeometry>
        </mxCell>
        <mxCell id="-YDh8YO5cCQ9muC20Zy2-2" value="Course" style="rounded=0;whiteSpace=wrap;html=1;" parent="1" vertex="1">
          <mxGeometry x="80" y="180" width="120" height="60" as="geometry" />
        </mxCell>
        <mxCell id="c9e2M7kcOkfjXdV6clcm-9" style="rounded=0;orthogonalLoop=1;jettySize=auto;html=1;exitX=1;exitY=0.5;exitDx=0;exitDy=0;entryX=0.006;entryY=0.614;entryDx=0;entryDy=0;strokeColor=default;endArrow=none;endFill=0;entryPerimeter=0;" edge="1" parent="1" source="c9e2M7kcOkfjXdV6clcm-1" target="-YDh8YO5cCQ9muC20Zy2-2">
          <mxGeometry relative="1" as="geometry" />
        </mxCell>
        <mxCell id="c9e2M7kcOkfjXdV6clcm-1" value="title" style="ellipse;whiteSpace=wrap;html=1;" vertex="1" parent="1">
          <mxGeometry x="-100" y="200" width="120" height="80" as="geometry" />
        </mxCell>
        <mxCell id="c9e2M7kcOkfjXdV6clcm-10" style="rounded=0;orthogonalLoop=1;jettySize=auto;html=1;exitX=1;exitY=0.5;exitDx=0;exitDy=0;entryX=0;entryY=0.25;entryDx=0;entryDy=0;endArrow=none;endFill=0;" edge="1" parent="1" source="c9e2M7kcOkfjXdV6clcm-2" target="-YDh8YO5cCQ9muC20Zy2-2">
          <mxGeometry relative="1" as="geometry" />
        </mxCell>
        <mxCell id="c9e2M7kcOkfjXdV6clcm-2" value="&lt;u&gt;CRN&lt;/u&gt;" style="ellipse;whiteSpace=wrap;html=1;" vertex="1" parent="1">
          <mxGeometry x="-100" y="110" width="120" height="80" as="geometry" />
        </mxCell>
        <mxCell id="c9e2M7kcOkfjXdV6clcm-16" style="edgeStyle=orthogonalEdgeStyle;rounded=0;orthogonalLoop=1;jettySize=auto;html=1;entryX=1;entryY=0.5;entryDx=0;entryDy=0;endArrow=none;endFill=0;" edge="1" parent="1" source="c9e2M7kcOkfjXdV6clcm-3" target="c9e2M7kcOkfjXdV6clcm-7">
          <mxGeometry relative="1" as="geometry" />
        </mxCell>
        <mxCell id="c9e2M7kcOkfjXdV6clcm-3" value="person&lt;br&gt;" style="whiteSpace=wrap;html=1;" vertex="1" parent="1">
          <mxGeometry x="340" y="180" width="120" height="60" as="geometry" />
        </mxCell>
        <mxCell id="c9e2M7kcOkfjXdV6clcm-13" style="edgeStyle=orthogonalEdgeStyle;rounded=0;orthogonalLoop=1;jettySize=auto;html=1;endArrow=none;endFill=0;" edge="1" parent="1" source="c9e2M7kcOkfjXdV6clcm-5" target="c9e2M7kcOkfjXdV6clcm-6">
          <mxGeometry relative="1" as="geometry" />
        </mxCell>
        <mxCell id="c9e2M7kcOkfjXdV6clcm-34" style="edgeStyle=none;shape=connector;rounded=0;orthogonalLoop=1;jettySize=auto;html=1;exitX=1;exitY=0.5;exitDx=0;exitDy=0;entryX=0;entryY=0.5;entryDx=0;entryDy=0;labelBackgroundColor=default;strokeColor=default;fontFamily=Helvetica;fontSize=11;fontColor=default;endArrow=none;endFill=0;" edge="1" parent="1" source="c9e2M7kcOkfjXdV6clcm-5" target="c9e2M7kcOkfjXdV6clcm-30">
          <mxGeometry relative="1" as="geometry" />
        </mxCell>
        <mxCell id="c9e2M7kcOkfjXdV6clcm-5" value="department" style="whiteSpace=wrap;html=1;" vertex="1" parent="1">
          <mxGeometry x="80" y="360" width="120" height="60" as="geometry" />
        </mxCell>
        <mxCell id="c9e2M7kcOkfjXdV6clcm-6" value="offer" style="rhombus;whiteSpace=wrap;html=1;" vertex="1" parent="1">
          <mxGeometry x="100" y="270" width="80" height="80" as="geometry" />
        </mxCell>
        <mxCell id="c9e2M7kcOkfjXdV6clcm-7" value="taught by" style="rhombus;whiteSpace=wrap;html=1;" vertex="1" parent="1">
          <mxGeometry x="230" y="170" width="80" height="80" as="geometry" />
        </mxCell>
        <mxCell id="c9e2M7kcOkfjXdV6clcm-20" style="rounded=0;orthogonalLoop=1;jettySize=auto;html=1;entryX=0.25;entryY=1;entryDx=0;entryDy=0;endArrow=none;endFill=0;" edge="1" parent="1" source="c9e2M7kcOkfjXdV6clcm-19" target="c9e2M7kcOkfjXdV6clcm-5">
          <mxGeometry relative="1" as="geometry" />
        </mxCell>
        <mxCell id="c9e2M7kcOkfjXdV6clcm-19" value="name" style="whiteSpace=wrap;html=1;" vertex="1" parent="1">
          <mxGeometry y="450" width="120" height="60" as="geometry" />
        </mxCell>
        <mxCell id="c9e2M7kcOkfjXdV6clcm-22" style="rounded=0;orthogonalLoop=1;jettySize=auto;html=1;exitX=0.5;exitY=0;exitDx=0;exitDy=0;entryX=0.822;entryY=1.06;entryDx=0;entryDy=0;entryPerimeter=0;endArrow=none;endFill=0;" edge="1" parent="1" source="c9e2M7kcOkfjXdV6clcm-21" target="c9e2M7kcOkfjXdV6clcm-5">
          <mxGeometry relative="1" as="geometry" />
        </mxCell>
        <mxCell id="c9e2M7kcOkfjXdV6clcm-21" value="&lt;u&gt;department ID&lt;/u&gt;" style="whiteSpace=wrap;html=1;" vertex="1" parent="1">
          <mxGeometry x="150" y="450" width="120" height="60" as="geometry" />
        </mxCell>
        <mxCell id="c9e2M7kcOkfjXdV6clcm-31" style="rounded=0;orthogonalLoop=1;jettySize=auto;html=1;exitX=0;exitY=0.5;exitDx=0;exitDy=0;entryX=1;entryY=0.25;entryDx=0;entryDy=0;endArrow=none;endFill=0;" edge="1" parent="1" source="c9e2M7kcOkfjXdV6clcm-27" target="c9e2M7kcOkfjXdV6clcm-3">
          <mxGeometry relative="1" as="geometry" />
        </mxCell>
        <mxCell id="c9e2M7kcOkfjXdV6clcm-27" value="age" style="ellipse;whiteSpace=wrap;html=1;" vertex="1" parent="1">
          <mxGeometry x="540" y="80" width="120" height="80" as="geometry" />
        </mxCell>
        <mxCell id="c9e2M7kcOkfjXdV6clcm-32" style="edgeStyle=none;shape=connector;rounded=0;orthogonalLoop=1;jettySize=auto;html=1;exitX=0;exitY=0.5;exitDx=0;exitDy=0;entryX=1;entryY=0.5;entryDx=0;entryDy=0;labelBackgroundColor=default;strokeColor=default;fontFamily=Helvetica;fontSize=11;fontColor=default;endArrow=none;endFill=0;" edge="1" parent="1" source="c9e2M7kcOkfjXdV6clcm-28" target="c9e2M7kcOkfjXdV6clcm-3">
          <mxGeometry relative="1" as="geometry" />
        </mxCell>
        <mxCell id="c9e2M7kcOkfjXdV6clcm-28" value="name" style="ellipse;whiteSpace=wrap;html=1;labelBackgroundColor=default;endArrow=none;fontSize=11;rounded=0;endFill=0;" vertex="1" parent="1">
          <mxGeometry x="540" y="170" width="120" height="80" as="geometry" />
        </mxCell>
        <mxCell id="c9e2M7kcOkfjXdV6clcm-33" style="edgeStyle=none;shape=connector;rounded=0;orthogonalLoop=1;jettySize=auto;html=1;exitX=0;exitY=0.5;exitDx=0;exitDy=0;entryX=1;entryY=0.75;entryDx=0;entryDy=0;labelBackgroundColor=default;strokeColor=default;fontFamily=Helvetica;fontSize=11;fontColor=default;endArrow=none;endFill=0;" edge="1" parent="1" source="c9e2M7kcOkfjXdV6clcm-29" target="c9e2M7kcOkfjXdV6clcm-3">
          <mxGeometry relative="1" as="geometry" />
        </mxCell>
        <mxCell id="c9e2M7kcOkfjXdV6clcm-29" value="&lt;u&gt;SSN&lt;/u&gt;" style="ellipse;whiteSpace=wrap;html=1;" vertex="1" parent="1">
          <mxGeometry x="540" y="260" width="120" height="80" as="geometry" />
        </mxCell>
        <mxCell id="c9e2M7kcOkfjXdV6clcm-35" style="edgeStyle=none;shape=connector;rounded=0;orthogonalLoop=1;jettySize=auto;html=1;exitX=0.5;exitY=0;exitDx=0;exitDy=0;entryX=0.5;entryY=1;entryDx=0;entryDy=0;labelBackgroundColor=default;strokeColor=default;fontFamily=Helvetica;fontSize=11;fontColor=default;endArrow=none;endFill=0;" edge="1" parent="1" source="c9e2M7kcOkfjXdV6clcm-30" target="c9e2M7kcOkfjXdV6clcm-3">
          <mxGeometry relative="1" as="geometry" />
        </mxCell>
        <mxCell id="c9e2M7kcOkfjXdV6clcm-30" value="belong" style="rhombus;whiteSpace=wrap;html=1;" vertex="1" parent="1">
          <mxGeometry x="360" y="350" width="80" height="80" as="geometry" />
        </mxCell>
        <mxCell id="c9e2M7kcOkfjXdV6clcm-37" value="Classroom" style="rounded=0;whiteSpace=wrap;html=1;" vertex="1" parent="1">
          <mxGeometry x="80" y="-20" width="120" height="60" as="geometry" />
        </mxCell>
        <mxCell id="c9e2M7kcOkfjXdV6clcm-40" style="edgeStyle=none;shape=connector;rounded=0;orthogonalLoop=1;jettySize=auto;html=1;exitX=0.5;exitY=1;exitDx=0;exitDy=0;entryX=0.25;entryY=0;entryDx=0;entryDy=0;labelBackgroundColor=default;strokeColor=default;fontFamily=Helvetica;fontSize=11;fontColor=default;endArrow=none;endFill=0;" edge="1" parent="1" source="c9e2M7kcOkfjXdV6clcm-38" target="c9e2M7kcOkfjXdV6clcm-37">
          <mxGeometry relative="1" as="geometry" />
        </mxCell>
        <mxCell id="c9e2M7kcOkfjXdV6clcm-38" value="&lt;u&gt;Buiding name&lt;/u&gt;" style="ellipse;whiteSpace=wrap;html=1;" vertex="1" parent="1">
          <mxGeometry y="-140" width="120" height="80" as="geometry" />
        </mxCell>
        <mxCell id="c9e2M7kcOkfjXdV6clcm-41" style="edgeStyle=none;shape=connector;rounded=0;orthogonalLoop=1;jettySize=auto;html=1;exitX=0.5;exitY=1;exitDx=0;exitDy=0;entryX=0.75;entryY=0;entryDx=0;entryDy=0;labelBackgroundColor=default;strokeColor=default;fontFamily=Helvetica;fontSize=11;fontColor=default;endArrow=none;endFill=0;" edge="1" parent="1" source="c9e2M7kcOkfjXdV6clcm-39" target="c9e2M7kcOkfjXdV6clcm-37">
          <mxGeometry relative="1" as="geometry" />
        </mxCell>
        <mxCell id="c9e2M7kcOkfjXdV6clcm-39" value="&lt;u&gt;Room number&lt;/u&gt;" style="ellipse;whiteSpace=wrap;html=1;" vertex="1" parent="1">
          <mxGeometry x="150" y="-140" width="120" height="80" as="geometry" />
        </mxCell>
        <mxCell id="c9e2M7kcOkfjXdV6clcm-43" style="edgeStyle=none;shape=connector;rounded=0;orthogonalLoop=1;jettySize=auto;html=1;exitX=0.5;exitY=0;exitDx=0;exitDy=0;entryX=0.5;entryY=1;entryDx=0;entryDy=0;labelBackgroundColor=default;strokeColor=default;fontFamily=Helvetica;fontSize=11;fontColor=default;endArrow=none;endFill=0;" edge="1" parent="1" source="c9e2M7kcOkfjXdV6clcm-42" target="c9e2M7kcOkfjXdV6clcm-37">
          <mxGeometry relative="1" as="geometry" />
        </mxCell>
        <mxCell id="c9e2M7kcOkfjXdV6clcm-42" value="Use" style="rhombus;whiteSpace=wrap;html=1;" vertex="1" parent="1">
          <mxGeometry x="100" y="70" width="80" height="80" as="geometry" />
        </mxCell>
      </root>
    </mxGraphModel>
  </diagram>
</mxfile>
